# xmcd
#
# Track frame offsets: 
#        150
#        16456
#        42343
#        67369
#        81337
#        95209
#        110239
#        123607
#        147291
#        163295
#        196258
#        218283
#        231609
#
# Disc length: 3322 seconds
#
# Revision: 0
# Processed by: cddbd v1.5.2PL0 Copyright (c) Steve Scherf et al.
# Submitted via: ExactAudioCopy v0.95a5
#
DISCID=ce0cf80d
DTITLE=Mishouris - Mishouris
DYEAR=1900
DGENRE=Blues
TTITLE0=I Got Money
TTITLE1=Burn With a Fever of Love
TTITLE2=Big River,  You're Calling Me Back Home
TTITLE3=Joshua Fit the Battle of Jericho
TTITLE4=Boom, Boom Out Goes the Lights
TTITLE5=Oh, My Baby
TTITLE6=See You In Hell,  Old Man
TTITLE7=Wang Dang Doodle
TTITLE8=John The Revelator
TTITLE9=Last Day Tomorrow
TTITLE10=New Orleans
TTITLE11=On the Bottom
TTITLE12=On the Bottom (Dub Remix by Roman Mamaev)
EXTD=
EXTT0=
EXTT1=
EXTT2=
EXTT3=
EXTT4=
EXTT5=
EXTT6=
EXTT7=
EXTT8=
EXTT9=
EXTT10=
EXTT11=
EXTT12=
PLAYORDER=
